<svg xmlns="http://www.w3.org/2000/svg" width="1449" height="115" fill="none"><path fill="#E73D2B" fill-rule="evenodd" d="M0 87.491 10.125 72.91C20.25 58.327 40.5 29.164 60.75 38.885s40.5 58.328 60.75 63.188c20.25 4.861 40.5-34.024 60.75-38.885s40.5 24.303 60.75 21.873 40.5-36.455 60.75-31.594 40.5 48.606 60.75 58.327c20.25 9.722 40.5-14.581 60.75-26.733s40.5-12.152 50.625-12.152H486V0H0zM963 87.491l10.125-14.582c10.125-14.582 30.375-43.745 50.625-34.024s40.5 58.328 60.75 63.188c20.25 4.861 40.5-34.024 60.75-38.885s40.5 24.303 60.75 21.873 40.5-36.455 60.75-31.594 40.5 48.606 60.75 58.327c20.25 9.722 40.5-14.581 60.75-26.733s40.5-12.152 50.63-12.152H1449V0H963z" clip-rule="evenodd"/><path fill="#E73D2B" fill-rule="evenodd" d="M963 87.491 952.875 72.91C942.75 58.327 922.5 29.164 902.25 38.885s-40.5 58.328-60.75 63.188c-20.25 4.861-40.5-34.024-60.75-38.885S740.25 87.491 720 85.061s-40.5-36.455-60.75-31.594-40.5 48.606-60.75 58.327c-20.25 9.722-40.5-14.581-60.75-26.733s-40.5-12.152-50.625-12.152H477V0h486z" clip-rule="evenodd"/></svg>